<svg width="30" height="30" viewBox="0 0 30 30" fill="none" xmlns="http://www.w3.org/2000/svg">
<path d="M26.5625 16.25V10.625C26.5625 8.9674 25.904 7.37769 24.7319 6.20558C23.5598 5.03348 21.9701 4.375 20.3125 4.375H9.6875C8.0299 4.375 6.44019 5.03348 5.26808 6.20558C4.09598 7.37769 3.4375 8.9674 3.4375 10.625V19.375C3.4375 20.1958 3.59916 21.0085 3.91325 21.7668C4.22734 22.5251 4.68772 23.2141 5.26808 23.7944C6.44019 24.9665 8.0299 25.625 9.6875 25.625H17.5125" stroke="black" stroke-width="1.5" stroke-linecap="round" stroke-linejoin="round"/>
<path d="M3.76245 21.25L7.18745 17.25C7.63725 16.8032 8.22759 16.5256 8.85855 16.4641C9.48951 16.4026 10.1223 16.561 10.65 16.9125C11.1776 17.2639 11.8104 17.4223 12.4414 17.3608C13.0723 17.2993 13.6626 17.0217 14.1125 16.575L17.025 13.6625C17.8618 12.8228 18.9698 12.3077 20.1512 12.2093C21.3327 12.1108 22.5106 12.4354 23.475 13.125L26.5625 15.5125M10.0125 12.7125C10.2849 12.7108 10.5544 12.6555 10.8056 12.5497C11.0567 12.4439 11.2845 12.2897 11.476 12.0959C11.6676 11.902 11.819 11.6724 11.9218 11.42C12.0245 11.1676 12.0766 10.8975 12.075 10.625C12.0733 10.3525 12.018 10.083 11.9122 9.83186C11.8064 9.58074 11.6522 9.35291 11.4584 9.16139C11.2645 8.96987 11.0348 8.81841 10.7825 8.71564C10.5301 8.61288 10.2599 8.56084 9.98745 8.56248C9.43713 8.56579 8.91066 8.78759 8.52387 9.17907C8.13707 9.57055 7.92164 10.0997 7.92495 10.65C7.92827 11.2003 8.15006 11.7268 8.54154 12.1136C8.93303 12.5004 9.46213 12.7158 10.0125 12.7125Z" stroke="black" stroke-width="1.5" stroke-linecap="round" stroke-linejoin="round"/>
<path d="M23.3838 18.75V25" stroke="black" stroke-width="1.5" stroke-miterlimit="10" stroke-linecap="round"/>
<path d="M26.2501 21.3813L23.7913 18.9225C23.7381 18.8685 23.6746 18.8257 23.6047 18.7964C23.5347 18.7672 23.4597 18.7521 23.3838 18.7521C23.308 18.7521 23.2329 18.7672 23.163 18.7964C23.093 18.8257 23.0296 18.8685 22.9763 18.9225L20.5176 21.3813" stroke="black" stroke-width="1.5" stroke-linecap="round" stroke-linejoin="round"/>
</svg>
