<svg width="212" height="43" viewBox="0 0 212 43" fill="none" xmlns="http://www.w3.org/2000/svg">
<g clip-path="url(#clip0_55_20)">
<path d="M7.32593 -0.000976562L12.6079 10.653H57.4159L52.1779 -0.000976562H7.32593Z" fill="#EA1C24"/>
<path d="M12.716 16.138L7.656 26.799H36.788L34.212 32.128H5.093L0 42.779H42.076L54.808 16.138H12.716Z" fill="#EA1C24"/>
<path d="M75.1709 0.00604248L73.3709 18.606H90.2279L89.7469 23.575H72.7469L72.0859 30.392H95.9109L97.7109 11.792H80.8309L81.3119 6.82304H98.1909L98.8509 0.00604248H75.1709Z" fill="#EA1C24"/>
<path d="M132.558 0.00604248L131.417 11.792H119.553L120.694 0.00604248H113.878L110.936 30.395H117.752L118.893 18.609H130.758L129.617 30.395H136.433L139.374 0.00604248H132.558Z" fill="#EA1C24"/>
<path d="M158.886 6.82304H167.215L165.593 23.583H157.264L158.886 6.82304ZM152.73 0.00604248L149.788 30.395H171.688L174.626 0.00604248H152.73Z" fill="#EA1C24"/>
<path d="M189.3 0.00604248L188.64 6.82304H196.115L193.833 30.395H200.584L202.872 6.82304H210.541L211.2 0.00604248H189.3Z" fill="#EA1C24"/>
<path d="M72.573 37.513H74.805L74.668 38.827H72.436L72.573 37.513ZM71.384 36.198L70.699 42.772H72.025L72.299 40.142H72.937L75.004 42.772H76.64L74.573 40.142H75.856L76.267 36.198H71.384Z" fill="#EA1C24"/>
<path d="M195.027 37.687H198.253L198.116 39.001H194.89L195.027 37.687ZM193.838 36.372L193.152 42.946H194.478L194.752 40.316H196.289L197.457 42.946H199.094L197.926 40.316H199.309L199.72 36.372H193.838Z" fill="#EA1C24"/>
<path d="M91.3079 38.17L91.7689 39.777H90.5109L91.3079 38.17ZM90.8509 36.198L87.5129 42.772H89.0239L89.8579 41.091H92.1449L92.6319 42.786L94.1409 42.772L92.1749 36.198H90.8509Z" fill="#EA1C24"/>
<path d="M178.468 38.17L178.929 39.777H177.671L178.468 38.17ZM178.011 36.198L174.673 42.772H176.185L177.019 41.091H179.306L179.793 42.786L181.302 42.772L179.336 36.198H178.011Z" fill="#EA1C24"/>
<path d="M105.701 36.198L105.016 42.772H110.1L110.237 41.457H106.479L106.89 37.513H110.648L110.785 36.198H105.701Z" fill="#EA1C24"/>
<path d="M123.204 36.198L122.519 42.772H127.735L127.872 41.457H123.981L124.118 40.142H127.927L128.064 38.827H124.255L124.392 37.513H128.283L128.42 36.198H123.204Z" fill="#EA1C24"/>
<path d="M159.732 36.198L159.047 42.772H164.264L164.401 41.457H160.51L160.647 40.142H164.456L164.593 38.827H160.784L160.921 37.513H164.812L164.949 36.198H159.732Z" fill="#EA1C24"/>
<path d="M142.043 36.198L141.358 42.772H146.651L147.062 38.828H144.41L144.273 40.143H145.599L145.461 41.456H142.82L143.231 37.512H147.198L147.335 36.197L142.043 36.198Z" fill="#EA1C24"/>
</g>
<defs>
<clipPath id="clip0_55_20">
<rect width="211.196" height="42.946" fill="white"/>
</clipPath>
</defs>
</svg>
