<svg width="30" height="30" viewBox="0 0 30 30" fill="none" xmlns="http://www.w3.org/2000/svg">
<g clip-path="url(#clip0_57_75)">
<path d="M13.6935 0L16.6545 0.0075C17.8215 0.1485 18.8445 0.6975 19.6875 1.6245C20.376 2.3805 20.7375 3.2595 20.7585 4.2165H28.971C29.2452 4.21809 29.5076 4.32845 29.7006 4.52335C29.8935 4.71825 30.0012 4.98176 30 5.256C30.0008 5.52998 29.8929 5.7931 29.7 5.98768C29.5071 6.18226 29.245 6.29241 28.971 6.294L26.217 6.2925V23.733C26.217 27.5475 24.7935 30 21.6555 30H8.1285C4.9905 30 3.5895 27.561 3.5895 23.733V6.2925H1.029C0.755542 6.29092 0.493824 6.18117 0.30102 5.98724C0.108216 5.79331 -4.59494e-06 5.53096 1.46326e-10 5.2575C1.46326e-10 4.683 0.4605 4.2195 1.029 4.2195H9.234C9.255 3.4485 9.5415 2.667 10.065 1.8945C10.845 0.7425 12.063 0.111 13.6935 0ZM24.159 6.2925H5.646V23.733C5.646 26.565 6.426 27.924 8.1285 27.924H21.6555C23.364 27.924 24.1605 26.553 24.1605 23.733L24.159 6.2925ZM10.074 9.51C10.641 9.51 11.1015 9.975 11.1015 10.548V22.623C11.1023 22.897 10.9944 23.1601 10.8015 23.3547C10.6087 23.5493 10.3465 23.6594 10.0725 23.661C9.79878 23.659 9.537 23.5487 9.34443 23.3542C9.15186 23.1596 9.0442 22.8967 9.045 22.623V10.548C9.045 9.975 9.507 9.51 10.074 9.51ZM14.1615 9.51C14.7315 9.51 15.1905 9.975 15.1905 10.548V22.623C15.1913 22.897 15.0834 23.1601 14.8905 23.3547C14.6976 23.5493 14.4355 23.6594 14.1615 23.661C13.8878 23.659 13.626 23.5487 13.4334 23.3542C13.2409 23.1596 13.1332 22.8967 13.134 22.623V10.548C13.134 9.975 13.5945 9.51 14.1615 9.51ZM18.2535 9.51C18.8205 9.51 19.281 9.975 19.281 10.548V22.623C19.2818 22.8967 19.1741 23.1596 18.9816 23.3542C18.789 23.5487 18.5272 23.659 18.2535 23.661C17.9795 23.6594 17.7174 23.5493 17.5245 23.3547C17.3316 23.1601 17.2237 22.897 17.2245 22.623V10.548C17.2237 10.274 17.3316 10.0109 17.5245 9.81632C17.7174 9.62174 17.9795 9.51159 18.2535 9.51ZM13.764 2.073C12.801 2.1405 12.1665 2.469 11.763 3.066C11.466 3.5025 11.3175 3.8805 11.2935 4.218L18.7005 4.2165C18.6795 3.78 18.507 3.396 18.1725 3.0285C17.6535 2.4585 17.0775 2.1495 16.533 2.076L13.764 2.073Z" fill="black"/>
</g>
<defs>
<clipPath id="clip0_57_75">
<rect width="30" height="30" fill="white"/>
</clipPath>
</defs>
</svg>
