<?xml version="1.0" encoding="UTF-8"?>
<svg id="Collar" xmlns="http://www.w3.org/2000/svg" viewBox="0 0 971.61 146.2">
  <path id="Collar-2" data-name="Collar" d="m964.1,87.49c-7.1,5.98-14.82,11.27-22.47,16.58-18.6,12.92-37.72,24.98-58.51,34.18-11.7,5.19-23.78,7.97-36.7,7.95-119.95-.12-239.91-.07-359.86-.07s-241.24-.05-361.86.07c-13.62.01-26.37-3.09-38.54-8.8-27.87-13.06-53.23-30.18-77.6-48.81-10.47-8.01-11.56-20.14-2-29.19C34.19,33.22,65.04,12.23,102.63,2.96,110.69.97,118.91.06,127.3.06,364.54.13,601.78.2,839.02,0c25.71-.02,49.18,6.76,71.32,19.16,19.53,10.95,37.5,24,53.8,39.41,9.73,9.2,10.22,20.28-.04,28.92Z" style="fill: #061d2d; stroke-width: 0px;"/>
</svg>