<?xml version="1.0" encoding="UTF-8"?>
<svg id="right" xmlns="http://www.w3.org/2000/svg" xmlns:xlink="http://www.w3.org/1999/xlink" viewBox="0 0 1169.42 1851.39">
  <defs>
    <linearGradient id="linear-gradient" x1="602.12" y1="1033.87" x2="602.12" y2="412.52" gradientUnits="userSpaceOnUse">
      <stop offset="0" stop-color="#fff"/>
      <stop offset=".09" stop-color="#f5f6f9"/>
      <stop offset=".23" stop-color="#dae0eb"/>
      <stop offset=".41" stop-color="#afbcd4"/>
      <stop offset=".63" stop-color="#738ab4"/>
      <stop offset=".88" stop-color="#274b8c"/>
      <stop offset="1" stop-color="#002a77"/>
    </linearGradient>
  </defs>
  <g id="Right">
    <path d="m1153.94,353.61c-11.94-3.23-23.3-7.8-34.13-13.81-24.8-13.77-45.23-32.8-63.93-53.71-12.85-14.36-24.09-30.16-37.16-44.3-23.93-25.89-48.11-51.55-73.53-76.04-21.83-21.02-44.05-41.55-67.76-60.39-50.94-40.5-106.04-73.53-169.02-91.9-42.91-12.51-86.35-17.12-130.97-10.31-50.07,7.64-94.96,27.45-136.47,55.58-31.21,21.14-59.39,46.05-86,72.69-20,20.03-40.2,39.86-59.71,60.39-16.74,17.61-34.03,34.72-51.86,51.28-20.51,19.05-41.67,37.19-64.5,53.41-47.63,33.84-99.81,53.83-159.01,52.74-1.66-.03-3.34.11-4.98.32-9.11,1.19-12.39,4.57-14.48,13.77-1.51,6.68,1.31,12.48,3.38,18.27,16.48,46.03,31.67,92.49,46.26,139.14,29.98,95.83,56.06,192.74,79.4,290.39,17.62,73.67,33.98,147.63,50.73,221.5,18.74,82.64,37.65,165.25,59.35,247.17,9.33,35.23,16.81,70.85,33.4,104.12,20.79,41.68,34.5,86.38,49.15,130.58,17.05,51.45,32.56,103.35,46.58,155.68,3.14,11.7,7.73,15.85,21.01,17.02,2.31.2,4.66.04,6.99.04h187.97c63.32,0,126.64,0,189.96-.01,2.67,0,5.35.19,8-.07,11.84-1.18,16.01-4.93,19.05-16.76,3.72-14.49,7.43-28.97,11.25-43.43,20.15-76.33,45.82-150.76,77.11-223.22,12.39-28.67,24.43-57.24,31.78-87.88,16.96-70.77,34.23-141.46,50.68-212.35,17.43-75.09,35.02-150.14,52.55-225.2,19.58-83.83,40.65-167.28,63.68-250.23,23.3-83.96,49.18-167.09,78.79-249.06,4.89-13.54.45-21.63-13.56-25.42Z" style="fill: #061d2d; stroke-width: 0px;"/>
    <path d="m204.81,1681.68c-22.12-1.91-44.21-4.46-66.37-5.49-11.83-.55-23.79,1.49-35.68,2.39-14.55,1.09-29.08,2.65-43.65,3.17-14.03.49-19.6-6.47-18.37-20.49,5.98-68.54,17.39-136.22,32.65-203.23,11.21-49.28,25.29-97.74,44.22-144.72,4.7-11.67,13.79-14.35,22.76-12.04,5.8,1.5,8.54,5.57,10.72,10.78,13.13,31.32,23.46,63.57,32.43,96.28,15.81,57.69,27.56,116.24,35.95,175.45,3.45,24.28,6.53,48.61,9.4,72.97,2.35,19.88-3.96,26.11-24.06,24.93Z" style="fill: #061d2d; stroke-width: 0px;"/>
    <path d="m810.99,1754.12c-1.22,6.13-4.55,10.17-10.77,11.68-3.88.95-7.77,1.48-11.8,1.48-67.92-.06-135.85-.04-203.78-.04v.65c-36.3,0-72.6.08-108.9-.03-31.62-.09-63.25-.4-94.87-.64-1.99-.01-4.02-.01-5.97-.34-12.51-2.1-17.9-9.38-15.2-21.92,2.94-13.62,6.53-27.12,10.24-40.56,1.7-6.16,5.88-10.14,12.61-11.34,3.61-.65,7.15-1.21,10.83-1.21,128.22.03,256.44.02,384.66.04,3.3,0,6.55.33,9.86.89,7.61,1.29,11.62,5.46,13.36,12.78,2.93,12.28,6.25,24.46,9.36,36.69.99,3.91,1.17,7.86.37,11.87Z" style="fill: #061d2d; stroke-width: 0px;"/>
    <path d="m811.11,1836.31c-1.48,7.81-5.14,11.62-13,13.01-2.28.4-4.63.58-6.95.54-47.25-.94-94.47,1.78-141.72,1.47-59.95-.39-119.9.58-179.83-.38-30.26-.48-60.52-.77-90.77-1.11-16.01-.18-22.49-8.55-18.79-23.96,2.94-12.27,6.18-24.47,9.41-36.67,2.37-8.96,6.83-12.76,16.07-13.71,3.3-.34,6.65-.27,9.98-.27,63.61-.01,127.21-.01,190.82-.01s125.89,0,188.83.01c3,0,6.01-.11,8.99.07,10.82.69,14.53,3.84,17.27,14.45,2.9,11.26,5.77,22.52,8.72,33.76,1.11,4.23,1.8,8.42.97,12.8Z" style="fill: #061d2d; stroke-width: 0px;"/>
    <path d="m232.95,1744.2c-.31,18.19-5.86,23.75-24.54,22.84-22.18-1.09-44.33-3.2-66.44-5.38-12.41-1.23-24.51,1.21-36.76,1.83-14.23.72-28.41,2.43-42.61,3.68-1,.09-2,.04-3,.06-16.77.33-22.45-5.09-22.65-21.62-.03-2.34,0-4.67,0-6.83.89-9.76,1.66-19.36,2.65-28.93,1.54-14.8,4.71-18.21,19.61-20.11,8.88-1.14,17.85-1.56,26.78-2.24,16.21-1.24,32.44-3.65,48.62-3.32,21.19.43,42.33,3.01,63.48,4.75,6.27.51,12.52.54,18.78,2.04,7.63,1.82,11.53,6.16,12.3,13.62,1.34,12.86,2.53,25.74,3.78,38.61.03.33.01.66,0,1Z" style="fill: #061d2d; stroke-width: 0px;"/>
    <path d="m231.68,1837.78c-1.52,7.2-6.08,10.67-13.09,11.67-8.67,1.23-17.3.01-25.9-.5-14.89-.9-29.74-2.4-44.61-3.72-24.27-2.14-48.19,2.22-72.27,3.76-7.94.5-15.92,1.64-23.91.58-9.29-1.23-13.87-5.39-14.56-14.77-1.24-16.65,1.08-33.12,3.64-49.53,1.05-6.79,5.49-10.35,12.09-11.45,5.88-.98,11.75-1.81,17.75-2.16,17.55-1.02,35.06-2.68,52.58-4.04,3.98-.3,7.98-.37,11.96-.54.02-.1.03-.2.04-.3,20.51,1.59,41.01,3.29,61.54,4.71,6.63.46,13.21,1.05,19.74,2.33,7.02,1.37,11.48,5.47,12.28,12.56,1.55,13.84,2.7,27.72,3.98,41.58.31,3.36-.58,6.56-1.26,9.82Z" style="fill: #061d2d; stroke-width: 0px;"/>
    <g id="Edit-2" data-name="Edit">
      <path d="m653.87,302.32c-28.89,4.44-57.58,3.12-86.25-2.33-7.61-1.45-16.09-7.54-22.74-2.97-6.1,4.2-9.24,12.71-14.25,20.17,13.88,4.77,26.82,7.75,39.88,9.9,12.9,2.13,25.97,3.3,39.09,4.9q-3.86,11-14.47,9.99c-5.29-.5-10.6-.83-15.87-1.52-17.17-2.26-33.97-6.21-50.53-11.2-2.88-.87-5.47-2.27-7.9,1.17-4.36,6.18-9.05,12.12-14.16,18.9,12.34,4.17,23.35,9.39,35.3,12.28,10.71,2.58,21.62,3.69,32.47,5.19,15.47,2.14,31.04,3.45,46.72,3.2,4.25-.07,6.47-1.36,8.22-5.35,8.25-18.81,16.87-37.45,25.27-56.19.77-1.71,1.79-3.57,1.05-5.64-.63-.18-1.27-.59-1.84-.5Z" style="fill: #fff; stroke-width: 0px;"/>
         </g>
    <path d="m1012.39,413.24c-5.08-1.29-12.7-.46-17.07-.46-15.23,0-30.45-.02-45.68-.03-172.21-.12-344.41-.14-516.62-.09-48.29.01-96.58.03-144.86.06-24.14.01-48.29-.04-72.43.04-17.27.06-32.03,1.77-28.48,22.7,3.74,22.1,15.19,45.16,22.18,66.51,7.36,22.47,14.58,44.98,21.67,67.53,14.16,45.11,27.77,90.4,40.81,135.85,18,62.72,34.92,125.75,50.76,189.05,5.71,22.84,11.82,46.74,27.64,64.18,14.62,16.11,35.63,24.57,55.88,32.52,30.74,12.07,61.48,24.13,92.23,36.2,8.37,3.29,17,6.62,25.99,6.57,8.42-.05,16.51-3.07,24.38-6.06,22.38-8.47,44.77-16.95,67.15-25.42,25.19-9.54,50.97-19.43,71.18-37.23,17.63-15.53,29.89-36.12,41.85-56.34,95.49-161.45,190.97-322.89,286.46-484.34,4.18-7.07,1.66-10.05-3.02-11.23Zm-311.93,383.14h-.01c.01-.09.03-.17.05-.25-.01.08-.03.17-.04.25Z" style="fill: url(#linear-gradient); stroke-width: 0px;"/>
  </g>
</svg>