<?xml version="1.0" encoding="UTF-8"?>
<svg id="left" xmlns="http://www.w3.org/2000/svg" xmlns:xlink="http://www.w3.org/1999/xlink" viewBox="0 0 1302.6 2122.27">
  <defs>
    <linearGradient id="linear-gradient" x1="646.79" y1="1440.31" x2="646.79" y2="0" gradientUnits="userSpaceOnUse">
      <stop offset="0" stop-color="#fff"/>
      <stop offset="0" stop-color="#fafbfc"/>
      <stop offset=".06" stop-color="#c0c9d8"/>
      <stop offset=".12" stop-color="#8d9db8"/>
      <stop offset=".18" stop-color="#62789d"/>
      <stop offset=".24" stop-color="#3f5a87"/>
      <stop offset=".3" stop-color="#234276"/>
      <stop offset=".36" stop-color="#10326a"/>
      <stop offset=".42" stop-color="#042863"/>
      <stop offset=".49" stop-color="#012561"/>
      <stop offset=".69" stop-color="#032045"/>
      <stop offset=".87" stop-color="#051e33"/>
      <stop offset="1" stop-color="#061d2d"/>
    </linearGradient>
  </defs>
  <g id="Left">
    <path d="m1301.76,806.57c-2.51,87.93-.03,175.89-1.98,263.79-2.54,113.94.19,227.89-2.16,341.79-1.68,81.29-.3,162.55-1.26,243.82-.24,20.99-.21,41.99-.35,62.98-.06,10.63-.18,10.61-10.35,11.13-3.02.16-8.2-1.7-8.38,2.68-.23,5.63,5.38,2.9,8.5,3.49,3.01.57,6.43-.72,10.05,2.24-6.12,3.84-12.4.62-18.33,2.99,4.05,5.09,9.82,1.22,15.48,4.33-5.67.29-9.93.51-14.19.73-.01.39-.01.79-.02,1.18,3.64.16,7.28.33,10.93.47,3.23.13,4.66,1.82,4.92,5.02.64,7.9-3.09,12.97-11.14,15.3-9.51,2.76-19.2,1.21-28.81,1.58-22.16.85-42.65,6.36-60.27,20.57-15.02,12.11-30.65,23.5-45.24,36.1-31.25,26.97-66.83,45.68-105.76,58.86-37.92,12.83-76.6,22.44-116.15,28.15-22.32,3.22-44.77,5.58-67.36,6.97-17.96,1.11-35.98.36-53.8,2.01-20.99,1.94-42,2.2-62.83,1.02-31.29-1.76-62.61-.13-93.82-1.88-47.94-2.69-95.9-.29-143.81-1.91-32.51-1.1-65.01-2.31-97.48-5.16-35.85-3.14-71.31-8.33-106.15-16.85-41.51-10.16-82.08-23.35-117.81-47.84-21.7-14.88-41.63-32.09-62.05-48.64-14.25-11.56-28.6-22.93-47.04-27.38-7.45-1.8-14.91-4.19-22.53-3.77-9.28.51-18.34-1.7-27.71-.75-9.78.99-14.83-4.25-17.42-14.11-.95-3.65-.84-7.23-1.03-10.87-.22-4.05,1.21-6.05,5.59-6.39,3.12-.24,8.63,2.23,8.79-2.93.12-4.13-5.09-3.14-8.24-3.27-4.79-.21-6.34-2.86-6.2-7.19.06-1.99,0-3.99,0-5.99-.11-97.66.98-195.34-.77-292.96-1.08-60.29-.44-120.56-1.23-180.82-.03-2.67.03-5.34.04-8,0-3.88,1.72-6.18,5.71-6.9,3.15-.56,6.49-.98,9.42-4.1-3.22-2.38-6.61-1.47-9.68-1.51-4.32-.06-6-2.13-5.79-6.21.05-.99-.02-2-.02-3-.01-2-.01-4-.01-6,.12-129.93-1.79-259.85-2.54-389.78-.33-55.92-.27-111.88-1.45-167.81-.04-1.66-.01-3.33-.01-5,.07-18,4.52-22.36,22.27-22.67,24.68-.43,46.81-8.95,67.35-22.07,13.79-8.8,26.45-19.06,38.1-30.54,3.1-3.05,5.96-6.44,11.01-5.61,3.68,2.9,6.67,6.39,9.44,10.18,5.89,8.05,12.02,15.93,18.16,23.79,27.43,35.11,54.87,70.21,82.37,105.26,6.76,8.62,13.75,17.07,20.63,25.6,5.72,7.65,11.18,15.52,17.2,22.93,17.89,22.08,36.08,43.92,54,65.98,8.13,10.01,14.44,20.63,16.4,34.07,1.42,9.66-.01,19.17,1.3,28.66-.05,13.07-4.35,25.46-6.1,38.26-5.46,40.05-13.14,79.69-22.08,119.1-1.84,8.08-4.17,16.12-4.14,24.53-.6.28-.93.65-.83,1.16,0,.05,0,.11.04.16.02.1.07.2.14.31,0,.03.03.06.06.1-.27,1.15-.49,2.3-.68,3.46-.09.58-.17,1.16-.24,1.74-.06.45-.11.88-.15,1.32-.05.51-.1,1.02-.14,1.52-.05.51-.08,1.02-.12,1.54-.03.51-.06,1.02-.09,1.53-.05.95-.09,1.9-.13,2.85-.02.59-.04,1.17-.06,1.76-.06,1.76-.12,3.51-.22,5.26-.03.59-.07,1.17-.11,1.76-.04.57-.09,1.14-.14,1.72-.1,1.17-.24,2.34-.41,3.51-.77,1.45-.82,2.93-.22,4.44.02,3.25.04,6.5.07,9.75-.37.65-.57,1.3-.56,1.92,0,.13,0,.26.03.39v.04c.02.11.04.21.08.32,0,.03.01.05.01.07.05.18.13.36.22.54.05.09.1.18.15.27.11.18.24.35.39.53.42,6.68.84,13.36,1.26,20.03-1.14,16.02.91,31.92,4.48,47.3,6.1,26.29,9,52.88,11.25,79.65,2.04,24.15,4.8,48.21,12.57,71.37-.54,3.52,1.3,6.48,2.53,9.48,12.79,31.38,29,61.38,37.83,94.37,1.02,3.81,4.15,5.9,8.35,5.87,3-.03,6,.03,8.99.03h480.58c17.31,0,34.63.06,51.95-.03,9.23-.04,10-.39,9.1-9.68-1.38-14.18-4.03-28.24-5.49-42.42-.94-9.03-3.99-15.56-12.95-19.39-7.19-3.07-8.35-7.12-6.02-14.68,1.06-3.48,2.9-6.71,4.19-10.13,1.74-4.61,5.84-8.13,6.17-13.39,2.88-5.24,5.37-10.74,8.73-15.66,7.22-10.55,5.32-21-.27-31.04-7.86-14.11-16.19-27.97-24.85-41.59-1.89-2.97-2.67-5.68-3.02-8.92-2.44-22.68,4.21-44.45,6.88-66.6,1.4-11.56,5.6-22.72,6.34-34.48,4.47-22.54,8.66-45.13,10.89-68.03,1.35-1.67,1.45-3.55.96-5.54.3-2.91.59-5.82.89-8.73l.54-.48-.42-.57c.27-1.71.53-3.43.79-5.14.71-.96.82-1.99.37-3.09.32-4.82.64-9.64.96-14.46l.57-.63-.46-.7c.89-2.28,1.1-4.65.87-7.07l.41-.52s-.3-.6-.3-.61c.22-1.66.44-3.33.66-5.01l.63-.5-.52-.6c1.01-7.57,7.1-12.49,10-19.08.19-.05.37-.1.54-.16.18-.05.35-.11.52-.18.17-.06.34-.13.5-.2s.32-.14.47-.22c.32-.15.62-.32.9-.51.14-.09.28-.18.41-.28.14-.1.27-.2.4-.31.13-.11.25-.21.38-.33.12-.11.24-.22.35-.34.24-.23.46-.48.66-.75.1-.13.21-.27.3-.41.65-.92,1.17-1.98,1.56-3.16.39-.29.76-.61,1.11-.95.09-.09.17-.17.25-.26.44-.45.82-.94,1.16-1.47.1-.17.21-.35.3-.53.01-.02.02-.04.03-.06.1-.19.2-.39.28-.6.01-.02.02-.04.03-.06.09-.22.18-.45.25-.68l.83-.25-.02-.87h.01c1-1.66,2.02-3.33,3.03-5l.77-.24-.02-.82c.44-.94.87-1.88,1.31-2.82l.77-.34s0-.29-.02-.53v-.32s0-.01,0-.01h0c.39-.91.78-1.84,1.18-2.76l.77-.42-.1-.87c1.29-3.83,1.25-7.79.98-11.74-.52-7.54-.94-15.09-1.82-22.59-1.88-16.02-1.86-32.2-4.59-48.13-.22-5.6-.35-11.21-.7-16.8-1.16-18.45-2.93-36.86-2.79-55.38l.69-.54s-.29-.78-.29-.79c2.11-10.11,6.09-19.42,11.63-28.15,8.23-12.97,14.69-27.1,26.31-37.78,3.05-2.8,6.01-6.15,7.51-10.31,2.91-1.82,4.47-4.85,6.5-7.43,25.32-32.14,50.63-64.29,75.87-96.5,10.25-13.08,20.47-26.2,30.45-39.5,8.23-10.98,16.25-22.11,26.53-31.34,5.77-.36,9.91,2.26,13.85,6.39,17.12,17.9,35.99,33.6,58.13,45.08,17.05,8.83,34.93,14.51,54.29,14.82,2.67.05,5.36-.1,7.99.23,8.35,1.04,13.19,5.88,14.2,14.26.36,2.96.24,5.99.24,8.98-.1,53,.94,106.02-.58,158.98Z" style="fill: #fff; stroke-width: 0px;"/>
    <path d="m1189.99,1906.09c10.06-10.73,22.31-18.83,33.75-27.9,7.74-6.14,17.02-8.78,26.76-10.07,9.24-1.22,18.49-1.74,27.82-1.8,12.19-.07,17.72-5.63,17.95-17.76.25-13.66.27-27.34-.03-40.99-.26-11.58-5.79-17.13-17.38-17.34-14.63-.27-29.24-.51-43.8,2.05-20.29,3.58-39.55,9.81-56.05,22.28-19.63,14.84-38.77,30.35-57.84,45.91-18.15,14.81-37.48,27.54-59.3,36.34-50.22,20.27-102.06,33.7-155.98,40.03-32.38,3.81-64.85,5.86-97.29,6.85-33.54,1.03-67.17,1.03-100.81-.87-33.51-1.89-67.17-.93-100.78-2.13-46.56-1.67-93.18.38-139.79-1.91-29.56-1.45-59.02-3.44-88.37-6.85-16.77-1.94-33.55-4.35-50.03-8.32-14.08-3.39-28.21-6.54-41.72-9.66-3.89,3.03-2.28,8.75-6.46,10.81-2.29-1.33-2.74-3.14-2.38-4.67,1.9-8.27-3.28-11.27-9.68-13.46-2.21-.75-4.46-1.37-6.64-2.2-16.82-6.33-33.54-12.82-48.8-22.65-22.17-14.29-42.05-31.51-62.57-47.92-10.39-8.3-20.33-17.29-31.8-24.06-29.49-17.43-61.91-21.35-95.38-19.5-9.03.5-14.72,5.59-15.03,14.37-.56,15.64-.55,31.32-.03,46.97.29,8.86,5.86,13.81,14.81,14.59,4.63.41,9.35-.14,13.98.26,12.86,1.13,26.15.93,37.62,8.04,14.43,8.95,27.66,19.49,39.63,31.57.96.4,1.76.94,1.89,2.09.3.3.59.59.89.89-.35-.25-.69-.5-1.04-.74-.75-.57-1.5-1.13-2.26-1.7h0c-.08.01-.16.01-.24.01-.08.01-.16.01-.24.01-2.26,0-4.24-.91-6.24-1.84-.29-.13-.57-.26-.86-.39-9.12-4.09-18.43-7.5-28.33-9.36-16.38-3.08-32.81-5.31-49.52-4.61-15.23.64-20.24,5.78-20.37,20.92-.11,12-.12,24,0,36,.14,14.98,5.26,20.12,20.58,20.7,5.66.22,11.33.02,16.99.19,14.74.42,28.09,4.77,39.65,14.18,13.93,11.34,27.93,22.6,41.9,33.9,23.09,18.69,46.89,36.5,74.34,48.24,32.14,13.75,65.08,25.5,99.14,33.69,35.88,8.62,72.19,14.6,108.94,18.43,25.8,2.69,51.68,4.59,77.48,4.99,40.57.62,81.17,1.18,121.81-.88,36.86-1.87,73.85-1.36,110.79-2.15,54.21-1.15,108.45.56,162.62-3.99,24.84-2.09,49.59-4.49,74.18-8.31,42.17-6.55,83.41-16.69,123.31-32.13,29.4-11.37,57.08-25.56,81.68-45.46,15.25-12.35,30.64-24.52,45.96-36.8,12.19-9.77,23.88-20.24,40.36-22.64,7.98-1.16,15.92-1.15,23.89-1.16,4.7-.02,9.25-.48,13.77-1.84,6.51-1.95,10.46-6.11,10.58-12.89.27-15.99.32-31.99.1-47.98-.09-6.67-3.74-11.23-10.32-13.12-3.83-1.1-7.65-2.07-11.75-1.97-8.97.21-17.87.47-26.84,1.51-16.65,1.94-32.77,5.38-48.14,12.09-.7.31-1.39.64-2.09.98-.25.11-.51.23-.76.35-.03,0-.06.03-.09.04-.28.13-.56.25-.84.37-.99.41-2.01.74-3.09.87-.52.08-1.05.1-1.61.07-.24.83-.62,1.5-1.1,2.02-.09.09-.17.17-.26.25-.76.7-1.77,1.1-2.96,1.27.03-2.44,1.57-3.54,3.73-4.11Zm-49.73,38.26c-.17,1.16-.95,1.72-2.01,1.99-.06.15-.12.28-.19.41,0,0-.02.03-.03.05-.07.13-.14.24-.22.35-.09.12-.18.23-.28.33-.36.38-.78.66-1.26.86-.16.07-.33.13-.51.19-.36.11-.74.2-1.14.27h0c-.33.92-.75,1.73-1.23,2.48-.09.15-.19.3-.3.45-.2.29-.42.56-.65.83-.17.2-.34.4-.52.59-.06.07-.12.13-.18.19-.12.13-.24.25-.37.37-.37.37-.76.72-1.16,1.05-.27.23-.54.45-.82.66-2.22,1.71-4.69,3.15-6.79,4.95-31.23,26.72-67.97,42.54-106.96,54.14-31.01,9.22-62.67,15.2-94.64,19.2-19.39,2.43-38.97,3.81-58.54,5.02-19.62,1.22-39.27.59-58.81,1.9-46.58,3.13-93.22,0-139.78,1.9-52.25,2.12-104.51,1.63-156.78,2.01-23.32.17-46.58-1.01-69.77-2.62-67.07-4.67-132.25-18.34-194.63-43.91-27.11-11.11-50.45-28.15-72.14-47.57-.43-.38-.45-1.22-.66-1.84-1.62-.13-3.03-.61-3.8-2.2,0-.01,0,0,0,0-1.33-.2-2.54-.66-2.91-2.09-.06-.26.72-1.06.99-1.01,1.44.29,2.07,1.35,2.21,2.76.05,0,.09,0,.14,0,.1,0,.2,0,.3.01.09,0,.18,0,.26.02.21.01.4.04.6.07.18.04.36.08.53.14.35.12.67.27.97.48.15.1.29.21.42.35.07.06.14.13.2.2.07.07.13.15.19.22.12.16.24.33.35.52h0c.23.1.46.18.7.25.24.09.47.17.71.24,1.42.48,2.85.92,4.13,1.63,49.23,27.12,102.28,42.67,157.3,52.44,25.85,4.6,51.8,7.83,77.97,10.01,27.52,2.28,55.07,2.74,82.6,4.07,54.59,2.65,109.23-.55,163.74,2.01,50.61,2.37,101.18,1.25,151.77,1.6,36.9.25,73.59-3.02,110.22-7.61,42.67-5.36,84.66-13.76,125.42-27.31,28.67-9.54,57.48-19.21,83.57-35.11,1.68-1.02,3.66-1.54,5.5-2.29.99-1.47,2.39-2.05,4.13-1.83.2-1.16.95-1.74,2.04-1.97.33-.24.67-.49,1-.73-.29.29-.58.58-.87.87Zm44.48-32.86c-.12.08-.71-.25-.71-.27.06-.19.14-.35.23-.47.05-.06.1-.11.15-.15.42-.37,1.02-.28,1.6-.25-.41.4-.81.81-1.27,1.14Z" style="fill: #fff; stroke-width: 0px;"/>
    <path d="m1125.51,513.52c-11.59-17.39-22.89-34.95-33-53.32-10.24-18.61-19.82-37.44-27.78-57.1-6.66-16.43-13.64-32.78-19.34-49.55-6.94-20.4-14.02-40.76-19.34-61.73-4.7-18.58-9.29-37.1-11.49-56.14-1.53-13.18-3.43-26.31-4.14-39.59-1.08-20.31-.22-40.5,1.51-60.76,1.66-19.48,5.27-38.35,12.24-56.63.78-2.06,1.43-4.27,2.17-6.41,5.11-14.65,2.11-21.36-12.57-26.42-21.56-7.44-43.28-14.42-64.91-21.69-20.75-6.96-41.58-13.69-62.13-21.21-12.01-4.39-18.73-2.87-24.94,7.74-5.18,8.84-10.21,17.77-15.59,26.48-8.41,13.6-17.77,26.42-31.4,35.42-18.5,12.21-38.94,18.7-60.8,21.72-32.35,4.47-64.93,4.35-97.44,5.52-12.6.45-25.21-.17-37.84-1-15.89-1.05-31.86-.61-47.8-2.12-20.11-1.91-40.3-3.26-59.32-10.67-12.96-5.04-25.62-10.9-35.66-21.08-9.8-9.95-17.52-21.41-24.59-33.36-4.49-7.61-8.29-15.73-13.58-22.74-6.7-8.85-10.03-10.84-21.32-7.05-40.85,13.72-81.55,27.92-122.55,41.19-18.89,6.11-25.31,11.46-16.89,34.55,8.36,22.93,12.94,46.75,14.73,71,2.78,37.71-.6,75.04-8.5,111.97-7.53,35.19-18.73,69.27-30.94,103.06-17.82,49.34-40.18,96.34-69.67,139.86-12.71,18.76-26.33,36.77-41.13,53.91-2.13,2.46-5.36,4.51-2.76,8.49,3.68,2.9,6.67,6.39,9.44,10.18,5.89,8.05,12.02,15.93,18.16,23.79,27.43,35.11,54.87,70.21,82.37,105.26,6.76,8.62,13.75,17.07,20.63,25.6,5.72,7.65,11.18,15.52,17.2,22.93,17.89,22.08,36.08,43.92,54,65.98,8.13,10.01,14.44,20.63,16.4,34.07,1.42,9.66-.01,19.17,1.3,28.66-.05,13.07-4.35,25.46-6.1,38.26-5.46,40.05-13.14,79.69-22.08,119.1-1.84,8.08-4.17,16.12-4.14,24.53.3.75.13,1.33-.59,1.73-.27,1.15-.49,2.3-.68,3.46-.09.58-.17,1.16-.24,1.74-.06.45-.11.88-.15,1.32-.05.51-.1,1.02-.14,1.52-.05.51-.08,1.02-.12,1.54-.03.51-.06,1.02-.09,1.53-.05.95-.09,1.9-.13,2.85-.02.59-.04,1.17-.06,1.76-.06,1.76-.12,3.51-.22,5.26-.03.59-.07,1.17-.11,1.76-.04.57-.08,1.15-.14,1.72-.1,1.17-.24,2.34-.41,3.51,1.22,1.55,1.09,3.03-.22,4.44.02,3.25.04,6.5.07,9.75,1.15,1.27,1.31,2.63.33,4.08.41,6.68.83,13.36,1.25,20.03-1.14,16.02.91,31.92,4.48,47.3,6.1,26.29,9,52.88,11.25,79.65,2.04,24.15,4.8,48.21,12.57,71.37-.54,3.52,1.3,6.48,2.53,9.48,12.79,31.38,29,61.38,37.83,94.37,1.02,3.81,4.15,5.9,8.35,5.87,3-.03,6,.03,8.99.03h480.58c17.31,0,34.63.06,51.95-.03,9.23-.04,10-.39,9.1-9.68-1.38-14.18-4.03-28.24-5.49-42.42-.94-9.03-3.99-15.56-12.95-19.39-7.19-3.07-8.35-7.12-6.02-14.68,1.06-3.48,2.9-6.71,4.19-10.13,1.74-4.61,5.84-8.13,6.17-13.39,2.88-5.24,5.37-10.74,8.73-15.66,7.22-10.55,5.32-21-.27-31.04-7.86-14.11-16.19-27.97-24.85-41.59-1.89-2.97-2.67-5.68-3.02-8.92-2.44-22.68,4.21-44.45,6.88-66.6,1.4-11.56,5.6-22.72,6.34-34.48,4.47-22.54,8.66-45.13,10.89-68.03-.59-2-.81-3.95.96-5.54.3-2.91.59-5.82.89-8.73-.34-.39-.29-.75.12-1.05.27-1.71.53-3.43.79-5.14-1.41-1.21-1.14-2.23.37-3.09.32-4.82.64-9.64.96-14.46-.42-.47-.38-.92.11-1.33.89-2.28,1.1-4.65.87-7.07-.16-.3-.31-.6-.47-.9.19-.08.39-.15.58-.23.22-1.66.44-3.33.66-5.01-.22-.4-.18-.77.11-1.1,1.01-7.57,7.1-12.49,10-19.08.84-3.8,3.05-6.21,6.99-6.85.39-.29.76-.61,1.11-.95.09-.09.17-.17.25-.26.44-.45.82-.94,1.16-1.47.1-.17.2-.35.3-.53.01-.02.02-.04.03-.06.1-.19.2-.39.28-.6.01-.02.02-.04.03-.06.09-.22.17-.45.25-.68l.06-.82.75-.3h.01c1-1.66,2.02-3.33,3.03-5l.06-.76s.59-.26.69-.3c.44-.94.87-1.88,1.31-2.82-.21-.68.04-1.08.74-1.2h0c.39-.91.78-1.84,1.18-2.76-.24-.68-.02-1.11.67-1.29,1.29-3.83,1.25-7.79.98-11.74-.52-7.54-.94-15.09-1.82-22.59-1.88-16.02-1.86-32.2-4.59-48.13-.22-5.6-.35-11.21-.7-16.8-1.16-18.45-2.93-36.86-2.79-55.38-.26-.57-.13-1.01.4-1.33,2.11-10.11,6.09-19.42,11.63-28.15,8.23-12.97,14.69-27.1,26.31-37.78,3.05-2.8,6.01-6.15,7.51-10.31,2.91-1.82,4.47-4.85,6.5-7.43,25.32-32.14,50.63-64.29,75.87-96.5,10.25-13.08,20.47-26.2,30.45-39.5,8.23-10.98,16.25-22.11,26.53-31.34.66-1.85,1.33-3.7,1.99-5.55,0,0,.13.03.17.03h0c-11.25-12.06-21.19-25.14-30.29-38.79Z" style="fill: url(#linear-gradient); stroke-width: 0px;"/>
  </g>
</svg>