<?xml version="1.0" encoding="UTF-8"?>
<svg id="front" xmlns="http://www.w3.org/2000/svg" xmlns:xlink="http://www.w3.org/1999/xlink" viewBox="0 0 1302.13 1931.78">
  <defs>
    <linearGradient id="linear-gradient" x1="648.03" y1="1379.9" x2="648.03" y2="85.23" gradientUnits="userSpaceOnUse">
      <stop offset="0" stop-color="#fff"/>
      <stop offset="0" stop-color="#fafbfc"/>
      <stop offset=".06" stop-color="#c0c9d8"/>
      <stop offset=".12" stop-color="#8d9db8"/>
      <stop offset=".18" stop-color="#62789d"/>
      <stop offset=".24" stop-color="#3f5a87"/>
      <stop offset=".3" stop-color="#234276"/>
      <stop offset=".36" stop-color="#10326a"/>
      <stop offset=".42" stop-color="#042863"/>
      <stop offset=".49" stop-color="#012561"/>
      <stop offset=".69" stop-color="#032045"/>
      <stop offset=".87" stop-color="#051e33"/>
      <stop offset="1" stop-color="#061d2d"/>
    </linearGradient>
  </defs>
  <g id="Front">
    <path d="m1192.31,613.76c-.83,3.49-2.01,6.75-3.47,9.84-4.18,8.94-10.63,16.47-17.35,23.97-12.05,13.42-23.9,27.02-35.74,40.63-7.54,8.68-15.08,17.37-22.66,26.03-1.07,1.23-2.38,2.24-3.58,3.35-7.39,10.65-16.67,19.71-25.07,29.5-9.53,11.12-18.99,22.33-28.65,33.35-5.67,6.48-11.42,12.9-17.29,19.19-.41.44-.82.88-1.23,1.32-2.57,2.74-5.08,5.52-7.55,8.34-14.78,16.78-28.29,34.65-44.21,50.41-3.12,5.56-7.56,10.13-11.92,14.6-1.13,1.15-2.21,2.32-3.25,3.51-15.3,17.36-22.2,38.27-25.11,61.04-.9,6.95-1.34,13.9-1.35,20.9-.01,5.11-.03,10.23-.05,15.34-.1,33.85-.24,67.69-.39,101.54-.02,3.65-.23,7.31-.36,10.96.17,3.64.5,7.29.47,10.93-.29,42.92-.63,85.85-.96,128.77,1.98,11.25.17,22.58.8,33.85.6,10.87-1.01,21.61-1.7,32.4-.18,2.8-.3,5.61-.3,8.43,0,.91-.1,1.7-.29,2.39-.72,2.63-2.8,3.6-6.09,2.66-18.99-5.47-38.79-4.37-58.11-7.2-5.81-.86-11.91-.85-17.85.8-2.83.79-5.93,1.02-8.88.88-14.74-.7-29.04,2.36-43.46,4.63-6.22.98-12.39,2.11-18.53,3.37-.02.01-.05.01-.07.02-33.83,6.93-66.61,17.71-99.53,28.04-1.93.61-3.87,1.22-5.8,1.82-32.65,10.17-65.56,19.86-99.31,25.47-20.85,3.47-41.74,7.23-62.93,8.95-18.17,1.48-36.41,2.29-54.49,4.17-21.31,2.21-42.55.53-63.77,1.71-12.94.73-25.81-.53-38.72-.2-7.24.18-7.72-.35-7.77-7.12-.24-30.28-2.95-60.51-2.07-90.82.08-2.57-.26-5.21.85-7.61.17-.37.38-.74.63-1.1-1.43-58.06-1.18-116.14-1.57-174.21-.01-.29,0-.58.01-.86.07-1.42.33-2.83.48-4.24-.04-7.5-.09-14.99-.14-22.49-.22-36.07-.45-72.15-.63-108.22-.02-4.73-.09-9.44-.36-14.15-.21-3.91-.58-7.82-1.18-11.71-3.7-23.91-13.03-45.14-29.25-63.25-3.29-3.66-6.15-7.71-9.2-11.59-2.52-2.28-4.9-4.7-7.18-7.19-5.78-6.28-11.01-13.04-16.71-19.38v-.08c-.02-.93-.5-1.56-1.4-1.87-1.67-1.85-3.35-3.69-5.03-5.53-12.44-13.61-25.11-27.02-36.95-41.13-24.58-29.28-49.85-57.94-75.08-86.65-6.31-7.19-12.14-14.81-18.19-22.24h.01c-1.7-1.92-3.4-3.84-5.11-5.76-11.93-13.43-23.98-26.78-35.5-40.56-.75-.9-1.43-1.86-2.04-2.87-2.56-4.11-4.22-8.97-6.44-13.35,1.88-3.76,5.9-4.11,9.15-5.53,28.95-12.69,52.82-31.8,73.34-55.8,31.81-37.21,53.47-79.84,70-125.5,15.63-43.17,30.35-86.58,39.75-131.62,7.84-37.6,11.6-75.51,9.14-113.9-.49-7.6-1.87-15.13-2.81-22.7-.53-4.28-1.3-8.51-.88-12.9.8-8.27,5.23-13.22,13.03-15.81,20.84-6.9,41.62-13.97,62.4-21.04,22.66-7.72,45.3-15.52,67.95-23.29,3.8-1.31,7.62-2.3,11.71-1.9,8.66.86,13.08,4.53,14.9,13.48,2.19,10.73,3.55,21.63,5.9,32.31,9.33,42.34,26.7,80.89,56.49,112.83,24.26,26.01,54.22,42.89,89.41,49.24,49.03,8.85,92.3-4.72,130.05-36.21,33.86-28.26,53.26-65.79,65.92-107.27,4.77-15.6,7.24-31.69,10.07-47.72,2.61-14.79,10.49-19.84,24.87-15.34,17.77,5.56,35.34,11.78,52.96,17.79,25.5,8.69,50.97,17.45,76.46,26.17,14.22,4.87,18.05,11.12,15.67,26.51-2.65,17.11-4.1,34.29-4.01,51.6.18,32.02,4.25,63.63,11.28,94.8,11.81,52.34,28.91,103.07,49.25,152.64,14.72,35.87,33.97,69.25,59.52,98.75,19.45,22.45,42.17,40.51,69.09,53.21,2.9,1.36,6.61,1.77,7.96,5.47Z" style="fill: url(#linear-gradient); stroke-width: 0px;"/>
    <path d="m1295.44,1829.83c.08,4.09-.97,7.9-1.81,11.79-1.15,5.4-4.59,8.57-9.87,10.11-5.51,1.61-11.08,1.91-16.77,1.9-113.98-.04-227.97-.03-341.95-.03-296.62,0-593.25,0-889.87.02-6,0-11.92-.12-17.77-1.86-5.29-1.57-8.72-4.68-9.95-10.06-.96-4.2-1.91-8.37-1.82-12.79.21-9.66.18-19.33.01-28.99-.07-4.07.86-7.9,1.68-11.81,1.23-5.84,4.71-9.14,10.45-10.73,5.56-1.53,11.15-1.63,16.82-1.63,205.3.02,410.6.01,615.91.01s410.6,0,615.9-.04c6.03,0,11.97.23,17.79,1.89,4.88,1.4,8.19,4.5,9.31,9.45.87,3.87,2.02,7.67,1.94,11.77-.19,10.33-.19,20.67,0,31Z" style="fill: #fff; stroke-width: 0px;"/>
    <path d="m1293.78,1919.18c-1.62,9.41-5.75,11.92-15.37,12.47-3.66.21-7.33.11-11,.11H34.58c-3,0-6-.04-9,0-14.09.21-18.32-4.74-19.58-18.47-1.18-12.89-1.15-26.05-.03-38.95,1.37-15.76,6.94-19.2,20.2-18.89,2.33.05,4.66,0,7,0,411.61,0,823.22,0,1234.83,0,4.32,0,8.67,0,12.98.3,6.32.44,10.47,3.85,12.4,9.9.21.63.39,1.28.49,1.94,2.5,17.2,2.85,34.48-.09,51.58Z" style="fill: #fff; stroke-width: 0px;"/>
    <path d="m817.15,102.41c-16.44,17.12-34.96,31.64-55.62,43.48-26.91,15.43-55.76,24.91-86.37,29.12-8.49,1.16-17.16,1.08-25.76,1.57-33.84-.34-65.81-8.68-96.08-23.39-25.65-12.47-48.46-29.11-68.3-49.64-9.15-9.47-9.06-21.58.27-31.07,35.77-36.34,78.3-60.38,128.82-69.1,71.13-12.28,132.39,9.6,186.61,54.94,5.61,4.69,10.85,9.85,16,15.05,9.14,9.22,9.49,19.6.43,29.04Z" style="fill: #061d2d; stroke-width: 0px;"/>
    <path d="m1302.12,651.17c-.14,18.99-.27,37.98-.4,56.98-2.16,312.11-4.32,624.24-6.49,936.35v-.13s1.29,116.69-2.4,118.34c-.29,2.62-1.56,5.24-3.6,6.88-4.51,3.62-10.78,3.79-16.56,3.79-403.67.05-807.34.1-1211,.15-9.68,0-19.43.05-29.05-1.07-26.13-3.04-25.64-9.61-25.8-33.65-.15-24.14-.3-48.27-.45-72.41-.3-48.27-.61-96.54-.91-144.81-.61-96.53-1.21-193.07-1.82-289.61C2.43,1038.9,1.21,845.83,0,652.75c-.04-6.35.09-13.24,3.99-18.26,4.7-6.04,13.17-7.32,20.78-8.13,25.39-2.72,50.79-5.44,76.18-8.15,3.07,3.54,6.15,7.09,9.23,10.63.61,1.01,1.29,1.97,2.04,2.87,11.52,13.78,23.57,27.13,35.5,40.56,1.71,1.92,3.41,3.84,5.11,5.76h-.01c6.05,7.43,11.88,15.05,18.19,22.24,25.23,28.71,50.5,57.37,75.08,86.65,11.84,14.11,24.51,27.52,36.95,41.13,1.69,1.94,3.37,3.87,5.04,5.81.05.85.61,1.34,1.39,1.67,5.7,6.34,10.93,13.1,16.71,19.38,15.64,18.72,30.15,38.42,38.67,61.13,3.97,10.57,6.53,21.49,8.14,32.61.27,4.71.34,9.42.36,14.15.18,36.07.41,72.15.63,108.22-.13,8.91-.25,17.82-.34,26.73-.01.28-.02.57-.01.86-.64,58.43-.32,116.88.94,175.31-1.11,2.4-.77,5.04-.85,7.61-.88,30.31,1.83,60.54,2.07,90.82.05,6.77.53,7.3,7.77,7.12,12.91-.33,25.78.93,38.72.2,21.22-1.18,42.46.5,63.77-1.71,18.08-1.88,36.32-2.69,54.49-4.17,21.19-1.72,42.08-5.48,62.93-8.95,33.75-5.61,66.66-15.3,99.31-25.47,1.93-.6,3.87-1.21,5.8-1.82,35.4-10.34,67.49-20.61,99.53-28.04.02-.01.05-.01.07-.02,6.14-1.26,12.31-2.39,18.53-3.37,14.42-2.27,28.72-5.33,43.46-4.63,2.95.14,6.05-.09,8.88-.88,5.94-1.65,12.04-1.66,17.85-.8,19.32,2.83,39.12,1.73,58.11,7.2,3.29.94,5.37-.03,6.09-2.66.17.03.35.06.52.09.02-3.64.05-7.27.07-10.91.69-10.79,2.3-21.53,1.7-32.4-.63-11.27,1.18-22.6-.8-33.85.33-42.92.67-85.85.96-128.77.03-3.64-.3-7.29-.47-10.93.13-3.65.34-7.31.36-10.96.15-33.85.29-67.69.39-101.54.63-24.01,2.83-48.01,11.78-70.14,3.89-9.61,8.94-18.59,14.73-27.14,1.04-1.19,2.12-2.36,3.25-3.51,4.36-4.47,8.8-9.04,11.92-14.6,15.92-15.76,29.43-33.63,44.21-50.41,2.94-3.22,5.87-6.44,8.78-9.66,5.87-6.29,11.62-12.71,17.29-19.19,27.14-30.32,53.79-61.07,79.96-92.23,11.84-13.61,23.69-27.21,35.74-40.63,6.72-7.5,13.17-15.03,17.35-23.97,1.92-2.37,3.83-4.75,5.73-7.13,29.44,4.14,58.88,8.29,88.32,12.43,5.61.79,11.73,1.85,15.42,6.14,3.7,4.28,3.85,10.48,3.81,16.13Z" style="fill: #fff; stroke-width: 0px;"/>
    <g id="Edit">
      <path d="m781.32,731.44c-37.31.81-74.57-1.25-111.85-2.01-6.66-.14-13.31-.53-19.96-.82-25.6-1.09-51.2-2.04-76.79-3.41-4.93-.26-7,1.29-8.76,5.74-7.93,20.1-16.26,40.04-24.41,60.06-.34.82-.75,1.86,1.63,3.17,26.57,2.46,54.46,3.87,82.35,5.19,19.61.93,39.24,1.48,58.87,1.99,4.16.11,5.58,1.84,4.3,5.49-2.19,6.24-4.66,12.4-7.14,18.54-4.35,10.8-2.88,8.66-12.71,8.61-45.6-.25-91.05-3.58-136.48-7.15-4.45-.35-6.45.84-8.86,4.14-3.33,4.55-3.7,10.22-6.57,14.85-.18,3.45-2.2,6.2-3.6,9.17-4.75,10.09-9.39,20.19-15.76,29.48-3.48,5.07-2.19,6.7,3.6,6.91,20.2.73,40.2,3.78,60.31,5.51l.7-.39s.49.59.49.6c17.58.87,35.18,1.58,52.76,2.68,8.62.53,17.29-.61,25.86.94l.46-.31s.28.46.28.48c23.21.15,46.43.34,69.65.43,8.7.04,8.73-.06,12.04-8.24,2.61-6.44,5.12-12.92,7.68-19.38,15.02-41.95,32.61-82.88,49.94-123.9,2.43-5.75,4.88-11.49,7.23-17.01-1.97-1.68-3.67-1.39-5.26-1.36Z" style="fill: #fff; stroke-width: 0px;"/>
        </g>
  </g>
</svg>